<svg version="1.1" viewBox="0.0 0.0 600.0 371.0" fill="none" stroke="none" stroke-linecap="square" stroke-miterlimit="10" width="600" height="371" xmlns:xlink="http://www.w3.org/1999/xlink" xmlns="http://www.w3.org/2000/svg"><path fill="#ffffff" fill-opacity="0.0" d="M0 0L600.0 0L600.0 371.0L0 371.0L0 0Z" fill-rule="nonzero"/><path fill="#93b4eb" d="M156.90251 164.05183C175.08432 119.27879 233.5045 88.38917 300.0 88.38917L300.0 192.52583Z" fill-rule="nonzero"/><path fill="#2e5dab" d="M448.76666 214.84084C448.76666 272.3539 382.16156 318.9775 300.0 318.9775C217.83844 318.9775 151.23334 272.3539 151.23334 214.84084L151.23334 192.52583C151.23334 250.03893 217.83844 296.6625 300.0 296.6625C382.16156 296.6625 448.76666 250.03893 448.76666 192.52583Z" fill-rule="nonzero"/><path fill="#4285f4" d="M300.0 88.38917C363.9401 88.38917 420.72852 116.98911 441.05182 159.42609C461.37512 201.86307 440.687 248.64395 389.66638 275.62106C338.64575 302.59818 268.70593 303.73672 215.94893 278.44907C163.19191 253.16136 139.41942 207.10428 156.90251 164.05183L300.0 192.52583Z" fill-rule="nonzero"/><path fill="#1a1a1a" d="M31.3625 101.92912Q31.3625 103.50725 30.753124 104.67912Q30.159374 105.851 29.20625 106.601Q28.2375 107.351 27.034374 107.726Q25.83125 108.08537 24.55 108.08537L19.378124 108.08537L19.378124 107.46037Q19.628124 107.46037 20.034374 107.4135Q20.45625 107.36662 20.58125 107.30412Q20.846874 107.19475 20.95625 106.976Q21.08125 106.74162 21.08125 106.42912L21.08125 97.42912Q21.08125 97.13225 20.971874 96.89787Q20.878124 96.64787 20.58125 96.50725Q20.315624 96.38225 19.9875 96.31975Q19.675 96.25725 19.440624 96.24162L19.440624 95.61662L24.89375 95.61662Q26.01875 95.61662 27.1125 95.96037Q28.20625 96.30412 29.003124 96.89787Q30.1125 97.67912 30.7375 98.94475Q31.3625 100.21037 31.3625 101.92912ZM29.20625 101.9135Q29.20625 100.6635 28.8625 99.64787Q28.534374 98.63225 27.89375 97.86662Q27.284374 97.14787 26.39375 96.74162Q25.51875 96.31975 24.440624 96.31975Q24.08125 96.31975 23.628124 96.33537Q23.175 96.351 22.95625 96.36662L22.95625 105.94475Q22.95625 106.74162 23.409374 107.05412Q23.878124 107.36662 24.846874 107.36662Q25.971874 107.36662 26.8 106.976Q27.64375 106.56975 28.159374 105.86662Q28.70625 105.13225 28.95625 104.1635Q29.20625 103.19475 29.20625 101.9135ZM40.39375 107.92912Q39.971874 108.06975 39.659374 108.1635Q39.3625 108.25725 38.95625 108.25725Q38.26875 108.25725 37.8625 107.94475Q37.45625 107.61662 37.346874 107.00725L37.284374 107.00725Q36.721874 107.63225 36.065624 107.976Q35.409374 108.30412 34.4875 108.30412Q33.503124 108.30412 32.878124 107.71037Q32.253124 107.11662 32.253124 106.14787Q32.253124 105.64787 32.39375 105.25725Q32.534374 104.851 32.815624 104.5385Q33.034374 104.27287 33.39375 104.06975Q33.753124 103.851 34.065624 103.74162Q34.471874 103.58537 35.675 103.17912Q36.878124 102.77287 37.3 102.55412L37.3 101.67912Q37.3 101.56975 37.253124 101.24162Q37.20625 100.9135 37.05 100.61662Q36.878124 100.30412 36.55 100.06975Q36.2375 99.81975 35.64375 99.81975Q35.2375 99.81975 34.89375 99.96037Q34.55 100.08537 34.409374 100.24162Q34.409374 100.4135 34.4875 100.75725Q34.58125 101.101 34.58125 101.38225Q34.58125 101.69475 34.3 101.96037Q34.01875 102.21037 33.534374 102.21037Q33.08125 102.21037 32.878124 101.89787Q32.675 101.58537 32.675 101.19475Q32.675 100.7885 32.95625 100.42912Q33.253124 100.05412 33.70625 99.75725Q34.096874 99.52287 34.659374 99.351Q35.221874 99.17912 35.753124 99.17912Q36.503124 99.17912 37.05 99.2885Q37.596874 99.38225 38.05 99.71037Q38.4875 100.0385 38.721874 100.601Q38.95625 101.14787 38.95625 102.02287Q38.95625 103.2885 38.925 104.25725Q38.909374 105.226 38.909374 106.38225Q38.909374 106.726 39.01875 106.92912Q39.14375 107.13225 39.39375 107.27287Q39.51875 107.351 39.8 107.36662Q40.096874 107.36662 40.39375 107.36662L40.39375 107.92912ZM37.33125 103.2885Q36.58125 103.50725 36.01875 103.726Q35.45625 103.92912 34.971874 104.24162Q34.534374 104.5385 34.26875 104.96037Q34.01875 105.36662 34.01875 105.92912Q34.01875 106.64787 34.39375 106.99162Q34.784374 107.33537 35.378124 107.33537Q36.003124 107.33537 36.471874 107.0385Q36.940624 106.726 37.26875 106.31975L37.33125 103.2885ZM46.534374 107.71037Q45.971874 107.94475 45.45625 108.101Q44.940624 108.27287 44.20625 108.27287Q43.1125 108.27287 42.659374 107.726Q42.221874 107.1635 42.221874 106.1635L42.221874 100.30412L40.659374 100.30412L40.659374 99.46037L42.26875 99.46037L42.26875 96.75725L43.8625 96.75725L43.8625 99.46037L46.346874 99.46037L46.346874 100.30412L43.878124 100.30412L43.878124 105.14787Q43.878124 105.67912 43.909374 106.05412Q43.95625 106.4135 44.1125 106.69475Q44.253124 106.94475 44.534374 107.08537Q44.815624 107.21037 45.284374 107.21037Q45.503124 107.21037 45.925 107.17912Q46.3625 107.13225 46.534374 107.06975L46.534374 107.71037ZM55.39375 107.92912Q54.971874 108.06975 54.659374 108.1635Q54.3625 108.25725 53.95625 108.25725Q53.26875 108.25725 52.8625 107.94475Q52.45625 107.61662 52.346874 107.00725L52.284374 107.00725Q51.721874 107.63225 51.065624 107.976Q50.409374 108.30412 49.4875 108.30412Q48.503124 108.30412 47.878124 107.71037Q47.253124 107.11662 47.253124 106.14787Q47.253124 105.64787 47.39375 105.25725Q47.534374 104.851 47.815624 104.5385Q48.034374 104.27287 48.39375 104.06975Q48.753124 103.851 49.065624 103.74162Q49.471874 103.58537 50.675 103.17912Q51.878124 102.77287 52.3 102.55412L52.3 101.67912Q52.3 101.56975 52.253124 101.24162Q52.20625 100.9135 52.05 100.61662Q51.878124 100.30412 51.55 100.06975Q51.2375 99.81975 50.64375 99.81975Q50.2375 99.81975 49.89375 99.96037Q49.55 100.08537 49.409374 100.24162Q49.409374 100.4135 49.4875 100.75725Q49.58125 101.101 49.58125 101.38225Q49.58125 101.69475 49.3 101.96037Q49.01875 102.21037 48.534374 102.21037Q48.08125 102.21037 47.878124 101.89787Q47.675 101.58537 47.675 101.19475Q47.675 100.7885 47.95625 100.42912Q48.253124 100.05412 48.70625 99.75725Q49.096874 99.52287 49.659374 99.351Q50.221874 99.17912 50.753124 99.17912Q51.503124 99.17912 52.05 99.2885Q52.596874 99.38225 53.05 99.71037Q53.4875 100.0385 53.721874 100.601Q53.95625 101.14787 53.95625 102.02287Q53.95625 103.2885 53.925 104.25725Q53.909374 105.226 53.909374 106.38225Q53.909374 106.726 54.01875 106.92912Q54.14375 107.13225 54.39375 107.27287Q54.51875 107.351 54.8 107.36662Q55.096874 107.36662 55.39375 107.36662L55.39375 107.92912ZM52.33125 103.2885Q51.58125 103.50725 51.01875 103.726Q50.45625 103.92912 49.971874 104.24162Q49.534374 104.5385 49.26875 104.96037Q49.01875 105.36662 49.01875 105.92912Q49.01875 106.64787 49.39375 106.99162Q49.784374 107.33537 50.378124 107.33537Q51.003124 107.33537 51.471874 107.0385Q51.940624 106.726 52.26875 106.31975L52.33125 103.2885ZM73.20625 96.24162Q72.95625 96.24162 72.44063 96.38225Q71.94063 96.50725 71.72188 96.64787Q71.40938 96.86662 71.3 97.49162Q71.19063 98.11662 71.19063 99.06975L71.19063 108.21037L70.425 108.21037L62.8625 98.00725L62.8625 104.44475Q62.8625 105.52287 63.003124 106.101Q63.14375 106.67912 63.425 106.92912Q63.6125 107.11662 64.2375 107.2885Q64.87813 107.44475 65.08125 107.46037L65.08125 108.08537L59.971874 108.08537L59.971874 107.46037Q60.20625 107.44475 60.76875 107.2885Q61.33125 107.13225 61.471874 107.00725Q61.784374 106.77287 61.89375 106.27287Q62.01875 105.75725 62.01875 104.5385L62.01875 98.39787Q62.01875 97.99162 61.878124 97.58537Q61.7375 97.17912 61.4875 96.96037Q61.175 96.6635 60.628124 96.46037Q60.096874 96.25725 59.76875 96.24162L59.76875 95.61662L63.315624 95.61662L70.33125 105.11662L70.33125 99.19475Q70.33125 98.101 70.19063 97.52287Q70.05 96.92912 69.78438 96.74162Q69.55 96.56975 68.9875 96.4135Q68.425 96.25725 68.14375 96.24162L68.14375 95.61662L73.20625 95.61662L73.20625 96.24162ZM82.62813 103.6635Q82.62813 104.58537 82.33125 105.476Q82.05 106.351 81.51875 106.96037Q80.90938 107.6635 80.09688 108.00725Q79.3 108.351 78.31563 108.351Q77.4875 108.351 76.7375 108.0385Q75.9875 107.726 75.40938 107.13225Q74.84688 106.5385 74.50313 105.69475Q74.15938 104.83537 74.15938 103.7885Q74.15938 101.75725 75.34688 100.476Q76.53438 99.17912 78.44063 99.17912Q80.26875 99.17912 81.44063 100.4135Q82.62813 101.63225 82.62813 103.6635ZM80.81563 103.67912Q80.81563 103.02287 80.675 102.2885Q80.55 101.55412 80.28438 101.0385Q80.00313 100.50725 79.53438 100.17912Q79.08125 99.83537 78.425 99.83537Q77.75313 99.83537 77.26875 100.17912Q76.8 100.50725 76.4875 101.08537Q76.20625 101.63225 76.09688 102.31975Q75.9875 102.99162 75.9875 103.63225Q75.9875 104.476 76.1125 105.19475Q76.25313 105.9135 76.55 106.476Q76.8625 107.0385 77.3 107.36662Q77.75313 107.67912 78.425 107.67912Q79.53438 107.67912 80.175 106.61662Q80.81563 105.55412 80.81563 103.67912ZM89.53438 107.71037Q88.97188 107.94475 88.45625 108.101Q87.94063 108.27287 87.20625 108.27287Q86.1125 108.27287 85.65938 107.726Q85.22188 107.1635 85.22188 106.1635L85.22188 100.30412L83.65938 100.30412L83.65938 99.46037L85.26875 99.46037L85.26875 96.75725L86.8625 96.75725L86.8625 99.46037L89.34688 99.46037L89.34688 100.30412L86.87813 100.30412L86.87813 105.14787Q86.87813 105.67912 86.90938 106.05412Q86.95625 106.4135 87.1125 106.69475Q87.25313 106.94475 87.53438 107.08537Q87.81563 107.21037 88.28438 107.21037Q88.50313 107.21037 88.925 107.17912Q89.3625 107.13225 89.53438 107.06975L89.53438 107.71037ZM107.01875 96.24162Q106.78438 96.24162 106.3 96.351Q105.83125 96.44475 105.53438 96.63225Q105.2375 96.83537 105.1125 97.476Q105.00313 98.101 105.00313 99.00725L105.00313 104.44475Q105.00313 105.476 104.56563 106.24162Q104.14375 107.00725 103.44063 107.49162Q102.7375 107.976 101.97188 108.17912Q101.20625 108.38225 100.50313 108.38225Q99.37813 108.38225 98.4875 108.08537Q97.6125 107.7885 97.01875 107.2885Q96.44063 106.7885 96.12813 106.14787Q95.83125 105.50725 95.83125 104.80412L95.83125 97.42912Q95.83125 97.11662 95.72188 96.9135Q95.62813 96.71037 95.33125 96.52287Q95.1125 96.39787 94.76875 96.33537Q94.425 96.25725 94.20625 96.24162L94.20625 95.61662L99.39375 95.61662L99.39375 96.24162Q99.14375 96.24162 98.76875 96.31975Q98.40938 96.38225 98.22188 96.44475Q97.925 96.55412 97.81563 96.80412Q97.72188 97.0385 97.72188 97.33537L97.72188 104.226Q97.72188 104.726 97.83125 105.27287Q97.94063 105.81975 98.26875 106.30412Q98.6125 106.7885 99.19063 107.101Q99.78438 107.39787 100.81563 107.39787Q101.78438 107.39787 102.44063 107.101Q103.09688 106.7885 103.47188 106.2885Q103.83125 105.80412 103.97188 105.2885Q104.12813 104.77287 104.12813 104.24162L104.12813 99.13225Q104.12813 98.14787 103.9875 97.5385Q103.84688 96.9135 103.58125 96.726Q103.26875 96.50725 102.7375 96.38225Q102.20625 96.25725 101.925 96.24162L101.925 95.61662L107.01875 95.61662L107.01875 96.24162ZM113.90938 103.83537Q114.26875 104.1635 114.45625 104.56975Q114.65938 104.976 114.65938 105.58537Q114.65938 106.7885 113.75313 107.55412Q112.84688 108.31975 111.425 108.31975Q110.65938 108.31975 110.01875 108.05412Q109.39375 107.77287 109.1125 107.5385L108.94063 108.11662L108.28438 108.11662L108.19063 105.101L108.8 105.101Q108.8625 105.44475 109.09688 105.89787Q109.33125 106.351 109.64375 106.726Q109.9875 107.11662 110.47188 107.38225Q110.95625 107.63225 111.55 107.63225Q112.39375 107.63225 112.84688 107.25725Q113.3 106.86662 113.3 106.1635Q113.3 105.7885 113.15938 105.52287Q113.01875 105.25725 112.7375 105.05412Q112.44063 104.851 112.01875 104.69475Q111.59688 104.52287 111.08125 104.36662Q110.675 104.24162 110.15938 104.0385Q109.65938 103.81975 109.3 103.52287Q108.90938 103.21037 108.65938 102.77287Q108.425 102.31975 108.425 101.71037Q108.425 100.64787 109.20625 99.9135Q110.00313 99.17912 111.33125 99.17912Q111.84688 99.17912 112.37813 99.30412Q112.90938 99.42912 113.2375 99.61662L113.44063 99.1635L114.06563 99.1635L114.20625 101.94475L113.59688 101.94475Q113.40938 101.02287 112.8 100.44475Q112.19063 99.851 111.31563 99.851Q110.59688 99.851 110.175 100.21037Q109.76875 100.56975 109.76875 101.08537Q109.76875 101.476 109.89375 101.74162Q110.03438 102.00725 110.31563 102.19475Q110.58125 102.36662 110.97188 102.52287Q111.37813 102.6635 111.95625 102.86662Q112.55 103.05412 113.05 103.30412Q113.56563 103.5385 113.90938 103.83537ZM123.87813 106.0385Q123.33125 107.08537 122.40938 107.71037Q121.50313 108.31975 120.31563 108.31975Q119.28438 108.31975 118.4875 107.94475Q117.70625 107.56975 117.19063 106.94475Q116.69063 106.30412 116.44063 105.46037Q116.19063 104.61662 116.19063 103.67912Q116.19063 102.83537 116.45625 102.02287Q116.72188 101.21037 117.2375 100.55412Q117.7375 99.94475 118.47188 99.56975Q119.22188 99.17912 120.14375 99.17912Q121.09688 99.17912 121.76875 99.476Q122.45625 99.77287 122.87813 100.2885Q123.26875 100.7885 123.47188 101.46037Q123.675 102.11662 123.675 102.89787L123.675 103.476L117.925 103.476Q117.925 104.33537 118.08125 105.0385Q118.25313 105.726 118.6125 106.24162Q118.95625 106.75725 119.50313 107.05412Q120.06563 107.351 120.83125 107.351Q121.6125 107.351 122.175 106.99162Q122.7375 106.61662 123.26875 105.6635L123.87813 106.0385ZM121.94063 102.74162Q121.94063 102.24162 121.84688 101.67912Q121.76875 101.11662 121.58125 100.74162Q121.39375 100.33537 121.03438 100.08537Q120.69063 99.83537 120.12813 99.83537Q119.20625 99.83537 118.59688 100.601Q117.9875 101.36662 117.925 102.74162L121.94063 102.74162ZM134.675 107.92912L131.65938 108.11662L131.51875 107.99162L131.51875 107.19475L131.45625 107.1635Q130.9875 107.67912 130.31563 108.00725Q129.64375 108.33537 128.94063 108.33537Q128.19063 108.33537 127.50313 108.00725Q126.81563 107.67912 126.31563 107.06975Q125.78438 106.46037 125.4875 105.61662Q125.19063 104.75725 125.19063 103.74162Q125.19063 102.7885 125.50313 101.94475Q125.83125 101.101 126.40938 100.476Q126.94063 99.88225 127.72188 99.5385Q128.50313 99.17912 129.3 99.17912Q129.90938 99.17912 130.4875 99.33537Q131.08125 99.49162 131.50313 99.726L131.50313 96.71037Q131.50313 96.33537 131.37813 96.0385Q131.25313 95.74162 131.03438 95.58537Q130.78438 95.4135 130.3625 95.33537Q129.95625 95.25725 129.47188 95.226L129.47188 94.67912L133.01875 94.476L133.14375 94.61662L133.14375 106.30412Q133.14375 106.601 133.25313 106.81975Q133.37813 107.0385 133.6125 107.19475Q133.78438 107.2885 134.09688 107.31975Q134.40938 107.351 134.675 107.351L134.675 107.92912ZM131.50313 106.4135L131.50313 101.33537Q131.425 101.101 131.26875 100.851Q131.1125 100.58537 130.87813 100.36662Q130.62813 100.13225 130.28438 99.99162Q129.94063 99.851 129.4875 99.851Q128.95625 99.851 128.50313 100.13225Q128.06563 100.39787 127.72188 100.89787Q127.39375 101.39787 127.20625 102.1635Q127.01875 102.9135 127.01875 103.83537Q127.01875 104.58537 127.15938 105.19475Q127.3 105.7885 127.62813 106.30412Q127.94063 106.7885 128.40938 107.101Q128.89375 107.39787 129.56563 107.39787Q130.26875 107.39787 130.72188 107.08537Q131.19063 106.77287 131.50313 106.4135Z" fill-rule="nonzero"/><path fill="#9e9e9e" d="M27.753124 132.08537L19.51875 132.08537L19.51875 130.88225Q19.753124 130.61662 20.175 130.2885Q20.596874 129.94475 21.175 129.5385Q21.534374 129.30412 22.01875 129.02287Q22.51875 128.74162 23.14375 128.4135Q23.83125 128.0385 24.20625 127.75725Q24.58125 127.476 24.89375 127.06975Q25.096874 126.7885 25.20625 126.38225Q25.33125 125.976 25.33125 125.226Q25.33125 124.11662 24.7375 123.61662Q24.159374 123.101 23.2375 123.101Q22.659374 123.101 22.14375 123.31975Q21.64375 123.5385 21.39375 123.94475Q21.45625 124.226 21.534374 124.61662Q21.628124 124.99162 21.628124 125.36662Q21.628124 125.69475 21.346874 125.96037Q21.08125 126.21037 20.534374 126.21037Q20.096874 126.21037 19.8625 125.9135Q19.628124 125.601 19.628124 125.101Q19.628124 124.61662 19.878124 124.14787Q20.14375 123.6635 20.64375 123.25725Q21.128124 122.86662 21.83125 122.61662Q22.55 122.36662 23.378124 122.36662Q25.175 122.36662 26.2375 123.17912Q27.3 123.976 27.3 125.31975Q27.3 125.96037 27.1125 126.49162Q26.925 127.02287 26.503124 127.42912Q26.034374 127.88225 25.409374 128.21037Q24.784374 128.52287 23.503124 129.08537Q22.7375 129.42912 22.065624 129.80412Q21.409374 130.17912 20.9875 130.52287L27.753124 130.52287L27.753124 132.08537ZM37.58125 123.88225Q38.14375 124.55412 38.409374 125.46037Q38.690624 126.36662 38.690624 127.36662Q38.690624 128.55412 38.346874 129.50725Q38.003124 130.44475 37.409374 131.06975Q36.8 131.71037 35.95625 132.0385Q35.1125 132.36662 34.065624 132.36662Q32.940624 132.36662 32.05 131.99162Q31.159374 131.61662 30.6125 130.94475Q30.034374 130.27287 29.7375 129.351Q29.45625 128.42912 29.45625 127.36662Q29.45625 126.31975 29.721874 125.44475Q30.003124 124.55412 30.596874 123.851Q31.159374 123.1635 32.05 122.77287Q32.940624 122.36662 34.08125 122.36662Q35.284374 122.36662 36.14375 122.77287Q37.003124 123.17912 37.58125 123.88225ZM36.753124 127.36662Q36.753124 125.27287 36.034374 124.13225Q35.315624 122.976 34.08125 122.976Q32.846874 122.976 32.1125 124.13225Q31.39375 125.27287 31.39375 127.36662Q31.39375 129.351 32.08125 130.56975Q32.784374 131.77287 34.065624 131.77287Q35.3625 131.77287 36.05 130.56975Q36.753124 129.351 36.753124 127.36662ZM43.190624 131.06975Q43.190624 131.56975 42.83125 131.9135Q42.4875 132.25725 41.9875 132.25725Q41.503124 132.25725 41.14375 131.9135Q40.784374 131.56975 40.784374 131.06975Q40.784374 130.58537 41.14375 130.226Q41.503124 129.86662 41.9875 129.86662Q42.4875 129.86662 42.83125 130.226Q43.190624 130.58537 43.190624 131.06975ZM54.003124 128.0385Q54.003124 128.94475 53.675 129.75725Q53.346874 130.55412 52.784374 131.11662Q52.14375 131.75725 51.3625 132.06975Q50.58125 132.36662 49.7375 132.36662Q48.76875 132.36662 47.971874 132.00725Q47.190624 131.64787 46.628124 130.99162Q46.065624 130.31975 45.753124 129.351Q45.45625 128.38225 45.45625 127.17912Q45.45625 124.0385 47.315624 121.89787Q49.190624 119.74162 52.33125 119.30412L52.4875 120.101L51.690624 120.24162Q49.784374 120.851 48.7375 122.1635Q47.70625 123.46037 47.39375 125.30412Q48.159374 124.64787 48.89375 124.38225Q49.628124 124.101 50.440624 124.101Q51.909374 124.101 52.95625 125.226Q54.003124 126.351 54.003124 128.0385ZM52.096874 128.27287Q52.096874 126.851 51.440624 125.99162Q50.784374 125.11662 49.690624 125.11662Q49.01875 125.11662 48.45625 125.36662Q47.89375 125.61662 47.3625 126.19475Q47.346874 126.30412 47.33125 126.69475Q47.315624 127.06975 47.315624 127.2885Q47.315624 129.33537 47.9875 130.50725Q48.659374 131.67912 49.76875 131.67912Q50.815624 131.67912 51.45625 130.77287Q52.096874 129.851 52.096874 128.27287ZM61.471874 122.56975Q61.471874 124.11662 60.628124 124.976Q59.8 125.81975 58.4875 125.81975Q57.175 125.81975 56.33125 124.976Q55.503124 124.11662 55.503124 122.56975Q55.503124 121.101 56.315624 120.21037Q57.128124 119.31975 58.503124 119.31975Q59.846874 119.31975 60.659374 120.21037Q61.471874 121.101 61.471874 122.56975ZM59.9875 122.56975Q59.9875 121.42912 59.6125 120.69475Q59.2375 119.96037 58.503124 119.96037Q57.7375 119.96037 57.3625 120.69475Q56.9875 121.42912 56.9875 122.56975Q56.9875 123.74162 57.3625 124.46037Q57.753124 125.1635 58.4875 125.1635Q59.221874 125.1635 59.596874 124.46037Q59.9875 123.74162 59.9875 122.56975ZM68.3 129.11662Q68.3 130.6635 67.45625 131.52287Q66.62813 132.36662 65.31563 132.36662Q64.00313 132.36662 63.159374 131.52287Q62.33125 130.6635 62.33125 129.11662Q62.33125 127.64787 63.14375 126.75725Q63.95625 125.86662 65.33125 125.86662Q66.675 125.86662 67.4875 126.75725Q68.3 127.64787 68.3 129.11662ZM66.81563 129.11662Q66.81563 127.976 66.44063 127.24162Q66.06563 126.50725 65.33125 126.50725Q64.56563 126.50725 64.19063 127.24162Q63.815624 127.976 63.815624 129.11662Q63.815624 130.2885 64.19063 131.00725Q64.58125 131.71037 65.31563 131.71037Q66.05 131.71037 66.425 131.00725Q66.81563 130.2885 66.81563 129.11662ZM67.72188 119.56975L57.3625 132.08537L56.14375 132.08537L66.4875 119.56975L67.72188 119.56975Z" fill-rule="nonzero"/><path stroke="#757575" stroke-width="1.0" stroke-linecap="butt" d="M18.55 113.58537L145.23334 113.58537L214.81694 113.58537" fill-rule="nonzero"/><path fill="#9e9e9e" d="M216.81694 113.58537C216.81694 112.480804 215.92151 111.58537 214.81694 111.58537C213.71237 111.58537 212.81694 112.480804 212.81694 113.58537C212.81694 114.68994 213.71237 115.58537 214.81694 115.58537C215.92151 115.58537 216.81694 114.68994 216.81694 113.58537" fill-rule="nonzero"/><path fill="#1a1a1a" d="M512.2625 259.81006Q512.2625 261.38818 511.65314 262.56006Q511.0594 263.73193 510.10626 264.48193Q509.1375 265.23193 507.9344 265.60693Q506.73126 265.9663 505.45 265.9663L500.27814 265.9663L500.27814 265.3413Q500.52814 265.3413 500.9344 265.29443Q501.35626 265.24756 501.48126 265.18506Q501.7469 265.07568 501.85626 264.85693Q501.98126 264.62256 501.98126 264.31006L501.98126 255.31006Q501.98126 255.01318 501.8719 254.77881Q501.77814 254.52881 501.48126 254.38818Q501.21564 254.26318 500.8875 254.20068Q500.575 254.13818 500.34064 254.12256L500.34064 253.49756L505.79376 253.49756Q506.91876 253.49756 508.0125 253.84131Q509.10626 254.18506 509.90314 254.77881Q511.0125 255.56006 511.6375 256.82568Q512.2625 258.0913 512.2625 259.81006ZM510.10626 259.79443Q510.10626 258.54443 509.7625 257.5288Q509.4344 256.51318 508.79376 255.74756Q508.1844 255.02881 507.29376 254.62256Q506.41876 254.20068 505.34064 254.20068Q504.98126 254.20068 504.52814 254.21631Q504.075 254.23193 503.85626 254.24756L503.85626 263.82568Q503.85626 264.62256 504.3094 264.93506Q504.77814 265.24756 505.7469 265.24756Q506.8719 265.24756 507.7 264.85693Q508.54376 264.45068 509.0594 263.74756Q509.60626 263.01318 509.85626 262.04443Q510.10626 261.07568 510.10626 259.79443ZM521.29376 265.81006Q520.8719 265.95068 520.5594 266.04443Q520.2625 266.13818 519.85626 266.13818Q519.16876 266.13818 518.7625 265.82568Q518.35626 265.49756 518.2469 264.88818L518.1844 264.88818Q517.6219 265.51318 516.96564 265.85693Q516.3094 266.18506 515.3875 266.18506Q514.40314 266.18506 513.77814 265.5913Q513.15314 264.99756 513.15314 264.0288Q513.15314 263.5288 513.29376 263.13818Q513.4344 262.73193 513.71564 262.41943Q513.9344 262.1538 514.29376 261.95068Q514.65314 261.73193 514.96564 261.62256Q515.3719 261.4663 516.575 261.06006Q517.77814 260.6538 518.2 260.43506L518.2 259.56006Q518.2 259.45068 518.15314 259.12256Q518.10626 258.79443 517.95 258.49756Q517.77814 258.18506 517.45 257.95068Q517.1375 257.70068 516.54376 257.70068Q516.1375 257.70068 515.79376 257.8413Q515.45 257.9663 515.3094 258.12256Q515.3094 258.29443 515.3875 258.63818Q515.48126 258.98193 515.48126 259.26318Q515.48126 259.57568 515.2 259.8413Q514.91876 260.0913 514.4344 260.0913Q513.98126 260.0913 513.77814 259.7788Q513.575 259.4663 513.575 259.07568Q513.575 258.66943 513.85626 258.31006Q514.15314 257.93506 514.60626 257.63818Q514.9969 257.4038 515.5594 257.23193Q516.1219 257.06006 516.65314 257.06006Q517.40314 257.06006 517.95 257.16943Q518.4969 257.26318 518.95 257.5913Q519.3875 257.91943 519.6219 258.48193Q519.85626 259.0288 519.85626 259.9038Q519.85626 261.16943 519.825 262.13818Q519.8094 263.10693 519.8094 264.26318Q519.8094 264.60693 519.91876 264.81006Q520.04376 265.01318 520.29376 265.1538Q520.41876 265.23193 520.7 265.24756Q520.9969 265.24756 521.29376 265.24756L521.29376 265.81006ZM518.23126 261.16943Q517.48126 261.38818 516.91876 261.60693Q516.35626 261.81006 515.8719 262.12256Q515.4344 262.41943 515.16876 262.8413Q514.91876 263.24756 514.91876 263.81006Q514.91876 264.5288 515.29376 264.87256Q515.6844 265.2163 516.27814 265.2163Q516.90314 265.2163 517.3719 264.91943Q517.84064 264.60693 518.16876 264.20068L518.23126 261.16943ZM527.4344 265.5913Q526.8719 265.82568 526.35626 265.98193Q525.84064 266.1538 525.10626 266.1538Q524.0125 266.1538 523.5594 265.60693Q523.1219 265.04443 523.1219 264.04443L523.1219 258.18506L521.5594 258.18506L521.5594 257.3413L523.16876 257.3413L523.16876 254.63818L524.7625 254.63818L524.7625 257.3413L527.2469 257.3413L527.2469 258.18506L524.77814 258.18506L524.77814 263.0288Q524.77814 263.56006 524.8094 263.93506Q524.85626 264.29443 525.0125 264.57568Q525.15314 264.82568 525.4344 264.9663Q525.71564 265.0913 526.1844 265.0913Q526.40314 265.0913 526.825 265.06006Q527.2625 265.01318 527.4344 264.95068L527.4344 265.5913ZM536.29376 265.81006Q535.8719 265.95068 535.5594 266.04443Q535.2625 266.13818 534.85626 266.13818Q534.16876 266.13818 533.7625 265.82568Q533.35626 265.49756 533.2469 264.88818L533.1844 264.88818Q532.6219 265.51318 531.96564 265.85693Q531.3094 266.18506 530.3875 266.18506Q529.40314 266.18506 528.77814 265.5913Q528.15314 264.99756 528.15314 264.0288Q528.15314 263.5288 528.29376 263.13818Q528.4344 262.73193 528.71564 262.41943Q528.9344 262.1538 529.29376 261.95068Q529.65314 261.73193 529.96564 261.62256Q530.3719 261.4663 531.575 261.06006Q532.77814 260.6538 533.2 260.43506L533.2 259.56006Q533.2 259.45068 533.15314 259.12256Q533.10626 258.79443 532.95 258.49756Q532.77814 258.18506 532.45 257.95068Q532.1375 257.70068 531.54376 257.70068Q531.1375 257.70068 530.79376 257.8413Q530.45 257.9663 530.3094 258.12256Q530.3094 258.29443 530.3875 258.63818Q530.48126 258.98193 530.48126 259.26318Q530.48126 259.57568 530.2 259.8413Q529.91876 260.0913 529.4344 260.0913Q528.98126 260.0913 528.77814 259.7788Q528.575 259.4663 528.575 259.07568Q528.575 258.66943 528.85626 258.31006Q529.15314 257.93506 529.60626 257.63818Q529.9969 257.4038 530.5594 257.23193Q531.1219 257.06006 531.65314 257.06006Q532.40314 257.06006 532.95 257.16943Q533.4969 257.26318 533.95 257.5913Q534.3875 257.91943 534.6219 258.48193Q534.85626 259.0288 534.85626 259.9038Q534.85626 261.16943 534.825 262.13818Q534.8094 263.10693 534.8094 264.26318Q534.8094 264.60693 534.91876 264.81006Q535.04376 265.01318 535.29376 265.1538Q535.41876 265.23193 535.7 265.24756Q535.9969 265.24756 536.29376 265.24756L536.29376 265.81006ZM533.23126 261.16943Q532.48126 261.38818 531.91876 261.60693Q531.35626 261.81006 530.8719 262.12256Q530.4344 262.41943 530.16876 262.8413Q529.91876 263.24756 529.91876 263.81006Q529.91876 264.5288 530.29376 264.87256Q530.6844 265.2163 531.27814 265.2163Q531.90314 265.2163 532.3719 264.91943Q532.84064 264.60693 533.16876 264.20068L533.23126 261.16943ZM553.91876 254.12256Q553.6844 254.12256 553.2 254.23193Q552.73126 254.32568 552.4344 254.51318Q552.1375 254.71631 552.0125 255.35693Q551.90314 255.98193 551.90314 256.88818L551.90314 262.32568Q551.90314 263.35693 551.46564 264.12256Q551.04376 264.88818 550.34064 265.37256Q549.6375 265.85693 548.8719 266.06006Q548.10626 266.26318 547.40314 266.26318Q546.27814 266.26318 545.3875 265.9663Q544.5125 265.66943 543.91876 265.16943Q543.34064 264.66943 543.02814 264.0288Q542.73126 263.38818 542.73126 262.68506L542.73126 255.31006Q542.73126 254.99756 542.6219 254.79443Q542.52814 254.59131 542.23126 254.40381Q542.0125 254.27881 541.66876 254.21631Q541.325 254.13818 541.10626 254.12256L541.10626 253.49756L546.29376 253.49756L546.29376 254.12256Q546.04376 254.12256 545.66876 254.20068Q545.3094 254.26318 545.1219 254.32568Q544.825 254.43506 544.71564 254.68506Q544.6219 254.91943 544.6219 255.21631L544.6219 262.10693Q544.6219 262.60693 544.73126 263.1538Q544.84064 263.70068 545.16876 264.18506Q545.5125 264.66943 546.09064 264.98193Q546.6844 265.2788 547.71564 265.2788Q548.6844 265.2788 549.34064 264.98193Q549.9969 264.66943 550.3719 264.16943Q550.73126 263.68506 550.8719 263.16943Q551.02814 262.6538 551.02814 262.12256L551.02814 257.01318Q551.02814 256.0288 550.8875 255.41943Q550.7469 254.79443 550.48126 254.60693Q550.16876 254.38818 549.6375 254.26318Q549.10626 254.13818 548.825 254.12256L548.825 253.49756L553.91876 253.49756L553.91876 254.12256ZM560.8094 261.7163Q561.16876 262.04443 561.35626 262.45068Q561.5594 262.85693 561.5594 263.4663Q561.5594 264.66943 560.65314 265.43506Q559.7469 266.20068 558.325 266.20068Q557.5594 266.20068 556.91876 265.93506Q556.29376 265.6538 556.0125 265.41943L555.84064 265.99756L555.1844 265.99756L555.09064 262.98193L555.7 262.98193Q555.7625 263.32568 555.9969 263.7788Q556.23126 264.23193 556.54376 264.60693Q556.8875 264.99756 557.3719 265.26318Q557.85626 265.51318 558.45 265.51318Q559.29376 265.51318 559.7469 265.13818Q560.2 264.74756 560.2 264.04443Q560.2 263.66943 560.0594 263.4038Q559.91876 263.13818 559.6375 262.93506Q559.34064 262.73193 558.91876 262.57568Q558.4969 262.4038 557.98126 262.24756Q557.575 262.12256 557.0594 261.91943Q556.5594 261.70068 556.2 261.4038Q555.8094 261.0913 555.5594 260.6538Q555.325 260.20068 555.325 259.5913Q555.325 258.5288 556.10626 257.79443Q556.90314 257.06006 558.23126 257.06006Q558.7469 257.06006 559.27814 257.18506Q559.8094 257.31006 560.1375 257.49756L560.34064 257.04443L560.96564 257.04443L561.10626 259.82568L560.4969 259.82568Q560.3094 258.9038 559.7 258.32568Q559.09064 257.73193 558.21564 257.73193Q557.4969 257.73193 557.075 258.0913Q556.66876 258.45068 556.66876 258.9663Q556.66876 259.35693 556.79376 259.62256Q556.9344 259.88818 557.21564 260.07568Q557.48126 260.24756 557.8719 260.4038Q558.27814 260.54443 558.85626 260.74756Q559.45 260.93506 559.95 261.18506Q560.46564 261.41943 560.8094 261.7163ZM570.77814 263.91943Q570.23126 264.9663 569.3094 265.5913Q568.40314 266.20068 567.21564 266.20068Q566.1844 266.20068 565.3875 265.82568Q564.60626 265.45068 564.09064 264.82568Q563.59064 264.18506 563.34064 263.3413Q563.09064 262.49756 563.09064 261.56006Q563.09064 260.7163 563.35626 259.9038Q563.6219 259.0913 564.1375 258.43506Q564.6375 257.82568 565.3719 257.45068Q566.1219 257.06006 567.04376 257.06006Q567.9969 257.06006 568.66876 257.35693Q569.35626 257.6538 569.77814 258.16943Q570.16876 258.66943 570.3719 259.3413Q570.575 259.99756 570.575 260.7788L570.575 261.35693L564.825 261.35693Q564.825 262.2163 564.98126 262.91943Q565.15314 263.60693 565.5125 264.12256Q565.85626 264.63818 566.40314 264.93506Q566.96564 265.23193 567.73126 265.23193Q568.5125 265.23193 569.075 264.87256Q569.6375 264.49756 570.16876 263.54443L570.77814 263.91943ZM568.84064 260.62256Q568.84064 260.12256 568.7469 259.56006Q568.66876 258.99756 568.48126 258.62256Q568.29376 258.2163 567.9344 257.9663Q567.59064 257.7163 567.02814 257.7163Q566.10626 257.7163 565.4969 258.48193Q564.8875 259.24756 564.825 260.62256L568.84064 260.62256ZM581.575 265.81006L578.5594 265.99756L578.41876 265.87256L578.41876 265.07568L578.35626 265.04443Q577.8875 265.56006 577.21564 265.88818Q576.54376 266.2163 575.84064 266.2163Q575.09064 266.2163 574.40314 265.88818Q573.71564 265.56006 573.21564 264.95068Q572.6844 264.3413 572.3875 263.49756Q572.09064 262.63818 572.09064 261.62256Q572.09064 260.66943 572.40314 259.82568Q572.73126 258.98193 573.3094 258.35693Q573.84064 257.76318 574.6219 257.41943Q575.40314 257.06006 576.2 257.06006Q576.8094 257.06006 577.3875 257.2163Q577.98126 257.37256 578.40314 257.60693L578.40314 254.59131Q578.40314 254.21631 578.27814 253.91943Q578.15314 253.62256 577.9344 253.46631Q577.6844 253.29443 577.2625 253.21631Q576.85626 253.13818 576.3719 253.10693L576.3719 252.56006L579.91876 252.35693L580.04376 252.49756L580.04376 264.18506Q580.04376 264.48193 580.15314 264.70068Q580.27814 264.91943 580.5125 265.07568Q580.6844 265.16943 580.9969 265.20068Q581.3094 265.23193 581.575 265.23193L581.575 265.81006ZM578.40314 264.29443L578.40314 259.2163Q578.325 258.98193 578.16876 258.73193Q578.0125 258.4663 577.77814 258.24756Q577.52814 258.01318 577.1844 257.87256Q576.84064 257.73193 576.3875 257.73193Q575.85626 257.73193 575.40314 258.01318Q574.96564 258.2788 574.6219 258.7788Q574.29376 259.2788 574.10626 260.04443Q573.91876 260.79443 573.91876 261.7163Q573.91876 262.4663 574.0594 263.07568Q574.2 263.66943 574.52814 264.18506Q574.84064 264.66943 575.3094 264.98193Q575.79376 265.2788 576.46564 265.2788Q577.16876 265.2788 577.6219 264.9663Q578.09064 264.6538 578.40314 264.29443Z" fill-rule="nonzero"/><path fill="#9e9e9e" d="M541.4969 281.10693L535.23126 293.16943L534.1219 293.16943L540.02814 282.01318L536.575 282.01318Q535.8094 282.01318 535.3719 282.0288Q534.95 282.04443 534.59064 282.20068Q534.3094 282.31006 534.09064 282.7788Q533.8875 283.24756 533.7625 283.98193L533.23126 283.98193L533.23126 280.5288L541.4969 280.5288L541.4969 281.10693ZM550.73126 285.43506Q550.73126 286.9663 550.2469 288.31006Q549.7625 289.6538 548.85626 290.68506Q547.96564 291.68506 546.6844 292.3413Q545.41876 293.01318 543.825 293.2163L543.66876 292.43506L544.46564 292.29443Q546.35626 291.68506 547.41876 290.45068Q548.48126 289.2163 548.79376 287.31006Q548.075 287.91943 547.35626 288.20068Q546.6375 288.48193 545.7469 288.48193Q544.3094 288.48193 543.2469 287.37256Q542.1844 286.26318 542.1844 284.56006Q542.1844 282.74756 543.40314 281.49756Q544.6375 280.24756 546.45 280.24756Q548.40314 280.24756 549.5594 281.6538Q550.73126 283.04443 550.73126 285.43506ZM548.8719 285.32568Q548.8719 283.26318 548.2 282.10693Q547.52814 280.93506 546.41876 280.93506Q545.3719 280.93506 544.73126 281.8413Q544.09064 282.74756 544.09064 284.32568Q544.09064 285.74756 544.7469 286.60693Q545.40314 287.4663 546.4969 287.4663Q547.1844 287.4663 547.7469 287.2163Q548.325 286.9663 548.825 286.41943Q548.825 286.37256 548.84064 286.2788Q548.85626 286.16943 548.85626 285.98193Q548.85626 285.85693 548.85626 285.68506Q548.8719 285.49756 548.8719 285.32568ZM555.09064 288.95068Q555.09064 289.45068 554.73126 289.79443Q554.3875 290.13818 553.8875 290.13818Q553.40314 290.13818 553.04376 289.79443Q552.6844 289.45068 552.6844 288.95068Q552.6844 288.4663 553.04376 288.10693Q553.40314 287.74756 553.8875 287.74756Q554.3875 287.74756 554.73126 288.10693Q555.09064 288.4663 555.09064 288.95068ZM565.98126 289.16943L564.2 289.16943L564.2 293.16943L562.5125 293.16943L562.5125 289.16943L556.8875 289.16943L556.8875 287.82568L563.04376 280.31006L564.2 280.31006L564.2 288.0288L565.98126 288.0288L565.98126 289.16943ZM562.5125 288.0288L562.5125 282.26318L557.7625 288.0288L562.5125 288.0288ZM573.3719 280.45068Q573.3719 281.99756 572.52814 282.85693Q571.7 283.70068 570.3875 283.70068Q569.075 283.70068 568.23126 282.85693Q567.40314 281.99756 567.40314 280.45068Q567.40314 278.98193 568.21564 278.0913Q569.02814 277.20068 570.40314 277.20068Q571.7469 277.20068 572.5594 278.0913Q573.3719 278.98193 573.3719 280.45068ZM571.8875 280.45068Q571.8875 279.31006 571.5125 278.57568Q571.1375 277.8413 570.40314 277.8413Q569.6375 277.8413 569.2625 278.57568Q568.8875 279.31006 568.8875 280.45068Q568.8875 281.62256 569.2625 282.3413Q569.65314 283.04443 570.3875 283.04443Q571.1219 283.04443 571.4969 282.3413Q571.8875 281.62256 571.8875 280.45068ZM580.2 286.99756Q580.2 288.54443 579.35626 289.4038Q578.52814 290.24756 577.21564 290.24756Q575.90314 290.24756 575.0594 289.4038Q574.23126 288.54443 574.23126 286.99756Q574.23126 285.5288 575.04376 284.63818Q575.85626 283.74756 577.23126 283.74756Q578.575 283.74756 579.3875 284.63818Q580.2 285.5288 580.2 286.99756ZM578.71564 286.99756Q578.71564 285.85693 578.34064 285.12256Q577.96564 284.38818 577.23126 284.38818Q576.46564 284.38818 576.09064 285.12256Q575.71564 285.85693 575.71564 286.99756Q575.71564 288.16943 576.09064 288.88818Q576.48126 289.5913 577.21564 289.5913Q577.95 289.5913 578.325 288.88818Q578.71564 288.16943 578.71564 286.99756ZM579.6219 277.45068L569.2625 289.9663L568.04376 289.9663L578.3875 277.45068L579.6219 277.45068Z" fill-rule="nonzero"/><path stroke="#757575" stroke-width="1.0" stroke-linecap="butt" d="M581.45 271.4663L454.76666 271.4663L385.18307 271.4663" fill-rule="nonzero"/><path fill="#9e9e9e" d="M387.18307 271.4663C387.18307 270.36172 386.28763 269.4663 385.18307 269.4663C384.0785 269.4663 383.18307 270.36172 383.18307 271.4663C383.18307 272.57086 384.0785 273.4663 385.18307 273.4663C386.28763 273.4663 387.18307 272.57086 387.18307 271.4663" fill-rule="nonzero"/><path fill="#757575" d="M32.784374 30.70625Q32.784374 32.471874 32.1125 33.76875Q31.45625 35.065624 30.39375 35.89375Q29.315624 36.721874 27.971874 37.14375Q26.64375 37.55 25.20625 37.55L19.471874 37.55L19.471874 36.8625Q19.753124 36.8625 20.20625 36.815624Q20.659374 36.753124 20.8 36.675Q21.096874 36.55 21.221874 36.3Q21.3625 36.05 21.3625 35.70625L21.3625 25.70625Q21.3625 25.378124 21.253124 25.1125Q21.14375 24.846874 20.8 24.690624Q20.503124 24.534374 20.14375 24.471874Q19.8 24.409374 19.55 24.378124L19.55 23.690624L25.596874 23.690624Q26.846874 23.690624 28.05 24.08125Q29.26875 24.45625 30.175 25.1125Q31.39375 25.9875 32.08125 27.39375Q32.784374 28.8 32.784374 30.70625ZM30.39375 30.690624Q30.39375 29.3 30.01875 28.175Q29.64375 27.034374 28.925 26.20625Q28.253124 25.39375 27.26875 24.940624Q26.3 24.4875 25.096874 24.4875Q24.690624 24.4875 24.190624 24.503124Q23.690624 24.51875 23.440624 24.51875L23.440624 35.175Q23.440624 36.065624 23.95625 36.409374Q24.471874 36.753124 25.55 36.753124Q26.8 36.753124 27.721874 36.315624Q28.64375 35.8625 29.221874 35.08125Q29.83125 34.26875 30.1125 33.190624Q30.39375 32.1125 30.39375 30.690624ZM43.378124 37.378124Q42.909374 37.534374 42.565624 37.64375Q42.221874 37.753124 41.784374 37.753124Q41.01875 37.753124 40.565624 37.39375Q40.1125 37.034374 39.9875 36.346874L39.925 36.346874Q39.3 37.05 38.565624 37.425Q37.83125 37.8 36.815624 37.8Q35.721874 37.8 35.01875 37.14375Q34.33125 36.471874 34.33125 35.39375Q34.33125 34.83125 34.4875 34.39375Q34.64375 33.95625 34.95625 33.596874Q35.20625 33.315624 35.596874 33.08125Q36.003124 32.846874 36.346874 32.721874Q36.8 32.55 38.128124 32.096874Q39.471874 31.64375 39.940624 31.39375L39.940624 30.425Q39.940624 30.3 39.89375 29.940624Q39.846874 29.58125 39.659374 29.253124Q39.471874 28.89375 39.1125 28.628124Q38.753124 28.3625 38.096874 28.3625Q37.659374 28.3625 37.26875 28.51875Q36.878124 28.659374 36.721874 28.83125Q36.721874 29.01875 36.815624 29.409374Q36.909374 29.784374 36.909374 30.1125Q36.909374 30.45625 36.596874 30.7375Q36.3 31.01875 35.753124 31.01875Q35.253124 31.01875 35.01875 30.675Q34.8 30.315624 34.8 29.89375Q34.8 29.440624 35.1125 29.034374Q35.440624 28.628124 35.940624 28.3Q36.378124 28.034374 37.003124 27.846874Q37.628124 27.64375 38.221874 27.64375Q39.05 27.64375 39.659374 27.76875Q40.26875 27.878124 40.76875 28.2375Q41.26875 28.596874 41.51875 29.221874Q41.784374 29.846874 41.784374 30.815624Q41.784374 32.221874 41.753124 33.3Q41.721874 34.378124 41.721874 35.659374Q41.721874 36.034374 41.846874 36.26875Q41.9875 36.4875 42.26875 36.64375Q42.409374 36.721874 42.721874 36.7375Q43.05 36.753124 43.378124 36.753124L43.378124 37.378124ZM39.971874 32.221874Q39.14375 32.45625 38.51875 32.690624Q37.89375 32.925 37.346874 33.284374Q36.8625 33.6125 36.58125 34.065624Q36.3 34.51875 36.3 35.14375Q36.3 35.95625 36.721874 36.346874Q37.14375 36.721874 37.8 36.721874Q38.4875 36.721874 39.01875 36.39375Q39.55 36.05 39.909374 35.58125L39.971874 32.221874ZM50.20625 37.128124Q49.565624 37.39375 49.003124 37.565624Q48.440624 37.753124 47.6125 37.753124Q46.409374 37.753124 45.909374 37.14375Q45.409374 36.534374 45.409374 35.425L45.409374 28.89375L43.675 28.89375L43.675 27.95625L45.45625 27.95625L45.45625 24.95625L47.2375 24.95625L47.2375 27.95625L50.003124 27.95625L50.003124 28.89375L47.253124 28.89375L47.253124 34.284374Q47.253124 34.878124 47.3 35.284374Q47.346874 35.690624 47.503124 36.003124Q47.659374 36.284374 47.971874 36.425Q48.284374 36.565624 48.815624 36.565624Q49.065624 36.565624 49.534374 36.534374Q50.003124 36.4875 50.20625 36.409374L50.20625 37.128124ZM60.378124 37.378124Q59.909374 37.534374 59.565624 37.64375Q59.221874 37.753124 58.784374 37.753124Q58.01875 37.753124 57.565624 37.39375Q57.1125 37.034374 56.9875 36.346874L56.925 36.346874Q56.3 37.05 55.565624 37.425Q54.83125 37.8 53.815624 37.8Q52.721874 37.8 52.01875 37.14375Q51.33125 36.471874 51.33125 35.39375Q51.33125 34.83125 51.4875 34.39375Q51.64375 33.95625 51.95625 33.596874Q52.20625 33.315624 52.596874 33.08125Q53.003124 32.846874 53.346874 32.721874Q53.8 32.55 55.128124 32.096874Q56.471874 31.64375 56.940624 31.39375L56.940624 30.425Q56.940624 30.3 56.89375 29.940624Q56.846874 29.58125 56.659374 29.253124Q56.471874 28.89375 56.1125 28.628124Q55.753124 28.3625 55.096874 28.3625Q54.659374 28.3625 54.26875 28.51875Q53.878124 28.659374 53.721874 28.83125Q53.721874 29.01875 53.815624 29.409374Q53.909374 29.784374 53.909374 30.1125Q53.909374 30.45625 53.596874 30.7375Q53.3 31.01875 52.753124 31.01875Q52.253124 31.01875 52.01875 30.675Q51.8 30.315624 51.8 29.89375Q51.8 29.440624 52.1125 29.034374Q52.440624 28.628124 52.940624 28.3Q53.378124 28.034374 54.003124 27.846874Q54.628124 27.64375 55.221874 27.64375Q56.05 27.64375 56.659374 27.76875Q57.26875 27.878124 57.76875 28.2375Q58.26875 28.596874 58.51875 29.221874Q58.784374 29.846874 58.784374 30.815624Q58.784374 32.221874 58.753124 33.3Q58.721874 34.378124 58.721874 35.659374Q58.721874 36.034374 58.846874 36.26875Q58.9875 36.4875 59.26875 36.64375Q59.409374 36.721874 59.721874 36.7375Q60.05 36.753124 60.378124 36.753124L60.378124 37.378124ZM56.971874 32.221874Q56.14375 32.45625 55.51875 32.690624Q54.89375 32.925 54.346874 33.284374Q53.8625 33.6125 53.58125 34.065624Q53.3 34.51875 53.3 35.14375Q53.3 35.95625 53.721874 36.346874Q54.14375 36.721874 54.8 36.721874Q55.4875 36.721874 56.01875 36.39375Q56.55 36.05 56.909374 35.58125L56.971874 32.221874ZM80.51875 24.378124Q80.25313 24.39375 79.72188 24.503124Q79.19063 24.6125 78.8625 24.83125Q78.53438 25.05 78.39375 25.753124Q78.26875 26.45625 78.26875 27.471874L78.26875 33.503124Q78.26875 34.64375 77.78438 35.503124Q77.31563 36.346874 76.53438 36.89375Q75.76875 37.425 74.90938 37.64375Q74.05 37.878124 73.26875 37.878124Q72.01875 37.878124 71.03438 37.55Q70.06563 37.221874 69.40938 36.675Q68.75313 36.1125 68.425 35.39375Q68.09688 34.675 68.09688 33.89375L68.09688 25.70625Q68.09688 25.3625 67.97188 25.14375Q67.8625 24.909374 67.51875 24.70625Q67.28438 24.565624 66.89375 24.4875Q66.51875 24.409374 66.26875 24.378124L66.26875 23.690624L72.05 23.690624L72.05 24.378124Q71.76875 24.39375 71.34688 24.471874Q70.94063 24.55 70.75313 24.6125Q70.40938 24.7375 70.3 25.01875Q70.19063 25.284374 70.19063 25.6125L70.19063 33.26875Q70.19063 33.815624 70.31563 34.425Q70.44063 35.034374 70.8 35.565624Q71.175 36.096874 71.83125 36.440624Q72.4875 36.784374 73.62813 36.784374Q74.70625 36.784374 75.425 36.440624Q76.15938 36.096874 76.58125 35.55Q76.97188 35.01875 77.14375 34.440624Q77.31563 33.8625 77.31563 33.284374L77.31563 27.596874Q77.31563 26.51875 77.15938 25.83125Q77.00313 25.14375 76.69063 24.925Q76.34688 24.675 75.75313 24.55Q75.175 24.409374 74.8625 24.378124L74.8625 23.690624L80.51875 23.690624L80.51875 24.378124ZM87.6125 32.83125Q88.01875 33.190624 88.22188 33.64375Q88.44063 34.096874 88.44063 34.76875Q88.44063 36.096874 87.44063 36.95625Q86.44063 37.8 84.84688 37.8Q84.00313 37.8 83.3 37.503124Q82.59688 37.190624 82.28438 36.940624L82.09688 37.58125L81.3625 37.58125L81.26875 34.221874L81.94063 34.221874Q82.01875 34.6125 82.26875 35.128124Q82.51875 35.628124 82.87813 36.034374Q83.26875 36.471874 83.8 36.76875Q84.33125 37.05 84.9875 37.05Q85.925 37.05 86.425 36.628124Q86.94063 36.20625 86.94063 35.409374Q86.94063 35.003124 86.78438 34.70625Q86.62813 34.409374 86.31563 34.175Q85.9875 33.95625 85.51875 33.784374Q85.05 33.596874 84.47188 33.425Q84.01875 33.284374 83.45625 33.05Q82.89375 32.8 82.4875 32.4875Q82.06563 32.14375 81.78438 31.64375Q81.51875 31.14375 81.51875 30.471874Q81.51875 29.284374 82.39375 28.471874Q83.26875 27.64375 84.75313 27.64375Q85.31563 27.64375 85.90938 27.8Q86.50313 27.940624 86.8625 28.14375L87.09688 27.64375L87.8 27.64375L87.94063 30.7375L87.26875 30.7375Q87.06563 29.690624 86.37813 29.05Q85.70625 28.39375 84.7375 28.39375Q83.925 28.39375 83.47188 28.8Q83.01875 29.20625 83.01875 29.76875Q83.01875 30.20625 83.15938 30.503124Q83.31563 30.784374 83.6125 31.003124Q83.90938 31.190624 84.34688 31.3625Q84.8 31.534374 85.45625 31.753124Q86.09688 31.95625 86.65938 32.2375Q87.2375 32.503124 87.6125 32.83125ZM98.81563 35.284374Q98.20625 36.440624 97.19063 37.128124Q96.175 37.8 94.84688 37.8Q93.69063 37.8 92.81563 37.39375Q91.94063 36.9875 91.37813 36.284374Q90.81563 35.58125 90.53438 34.64375Q90.25313 33.70625 90.25313 32.659374Q90.25313 31.721874 90.55 30.815624Q90.84688 29.909374 91.425 29.190624Q91.9875 28.503124 92.8 28.08125Q93.62813 27.64375 94.65938 27.64375Q95.70625 27.64375 96.45625 27.9875Q97.22188 28.315624 97.69063 28.89375Q98.12813 29.440624 98.34688 30.190624Q98.58125 30.925 98.58125 31.784374L98.58125 32.425L92.19063 32.425Q92.19063 33.378124 92.37813 34.159374Q92.56563 34.925 92.95625 35.503124Q93.33125 36.08125 93.94063 36.409374Q94.56563 36.721874 95.40938 36.721874Q96.28438 36.721874 96.90938 36.33125Q97.53438 35.925 98.12813 34.8625L98.81563 35.284374ZM96.64375 31.6125Q96.64375 31.065624 96.55 30.440624Q96.47188 29.815624 96.25313 29.39375Q96.03438 28.940624 95.64375 28.659374Q95.25313 28.378124 94.64375 28.378124Q93.6125 28.378124 92.925 29.2375Q92.25313 30.08125 92.19063 31.6125L96.64375 31.6125ZM110.8 37.378124L107.44063 37.596874L107.3 37.45625L107.3 36.55L107.22188 36.534374Q106.70625 37.096874 105.95625 37.471874Q105.22188 37.83125 104.425 37.83125Q103.59688 37.83125 102.83125 37.471874Q102.06563 37.096874 101.50313 36.425Q100.925 35.753124 100.58125 34.815624Q100.25313 33.8625 100.25313 32.721874Q100.25313 31.675 100.6125 30.7375Q100.97188 29.8 101.6125 29.096874Q102.20625 28.440624 103.06563 28.05Q103.94063 27.659374 104.83125 27.659374Q105.50313 27.659374 106.14375 27.83125Q106.8 28.003124 107.26875 28.26875L107.26875 24.909374Q107.26875 24.503124 107.12813 24.175Q107.00313 23.83125 106.75313 23.659374Q106.4875 23.471874 106.01875 23.39375Q105.55 23.3 105.01875 23.26875L105.01875 22.659374L108.95625 22.425L109.09688 22.58125L109.09688 35.565624Q109.09688 35.909374 109.22188 36.159374Q109.3625 36.39375 109.6125 36.55Q109.8 36.675 110.14375 36.70625Q110.50313 36.721874 110.8 36.7375L110.8 37.378124ZM107.26875 35.690624L107.26875 30.05Q107.19063 29.8 107.01875 29.503124Q106.84688 29.20625 106.58125 28.971874Q106.3 28.721874 105.90938 28.565624Q105.53438 28.39375 105.03438 28.39375Q104.44063 28.39375 103.94063 28.70625Q103.45625 29.003124 103.08125 29.565624Q102.72188 30.1125 102.50313 30.95625Q102.3 31.8 102.3 32.83125Q102.3 33.659374 102.45625 34.33125Q102.6125 34.9875 102.97188 35.565624Q103.31563 36.1125 103.84688 36.45625Q104.37813 36.784374 105.1125 36.784374Q105.89375 36.784374 106.40938 36.440624Q106.925 36.096874 107.26875 35.690624ZM125.76875 28.51875Q125.33125 28.596874 124.925 28.83125Q124.53438 29.065624 124.25313 29.675Q123.675 30.9875 123.05 32.409374Q122.44063 33.83125 121.78438 35.39375Q121.58125 35.846874 121.3625 36.45625Q121.14375 37.065624 120.95625 37.64375L120.20625 37.64375Q119.26875 35.346874 118.4875 33.45625Q117.70625 31.565624 116.8625 29.58125Q116.675 29.128124 116.2375 28.878124Q115.8 28.628124 115.3625 28.565624L115.3625 27.925L119.81563 27.925L119.81563 28.596874Q119.51875 28.6125 119.08125 28.721874Q118.64375 28.83125 118.64375 29.034374Q118.64375 29.065624 118.69063 29.190624Q118.7375 29.3 118.8 29.45625Q119.19063 30.45625 119.925 32.253124Q120.65938 34.034374 121.1125 35.128124Q121.47188 34.284374 122.00313 33.034374Q122.53438 31.784374 123.14375 30.2375Q123.25313 29.9875 123.33125 29.753124Q123.425 29.51875 123.425 29.284374Q123.425 29.128124 123.25313 29.003124Q123.09688 28.8625 122.87813 28.753124Q122.64375 28.659374 122.425 28.6125Q122.22188 28.565624 122.08125 28.55L122.08125 27.925L125.76875 27.925L125.76875 28.51875ZM132.6125 32.83125Q133.01875 33.190624 133.22188 33.64375Q133.44063 34.096874 133.44063 34.76875Q133.44063 36.096874 132.44063 36.95625Q131.44063 37.8 129.84688 37.8Q129.00313 37.8 128.3 37.503124Q127.59688 37.190624 127.28438 36.940624L127.09688 37.58125L126.3625 37.58125L126.26875 34.221874L126.94063 34.221874Q127.01875 34.6125 127.26875 35.128124Q127.51875 35.628124 127.87813 36.034374Q128.26875 36.471874 128.8 36.76875Q129.33125 37.05 129.9875 37.05Q130.925 37.05 131.425 36.628124Q131.94063 36.20625 131.94063 35.409374Q131.94063 35.003124 131.78438 34.70625Q131.62813 34.409374 131.31563 34.175Q130.9875 33.95625 130.51875 33.784374Q130.05 33.596874 129.47188 33.425Q129.01875 33.284374 128.45625 33.05Q127.89375 32.8 127.4875 32.4875Q127.06563 32.14375 126.78438 31.64375Q126.51875 31.14375 126.51875 30.471874Q126.51875 29.284374 127.39375 28.471874Q128.26875 27.64375 129.75313 27.64375Q130.31563 27.64375 130.90938 27.8Q131.50313 27.940624 131.8625 28.14375L132.09688 27.64375L132.8 27.64375L132.94063 30.7375L132.26875 30.7375Q132.06563 29.690624 131.37813 29.05Q130.70625 28.39375 129.7375 28.39375Q128.925 28.39375 128.47188 28.8Q128.01875 29.20625 128.01875 29.76875Q128.01875 30.20625 128.15938 30.503124Q128.31563 30.784374 128.6125 31.003124Q128.90938 31.190624 129.34688 31.3625Q129.8 31.534374 130.45625 31.753124Q131.09688 31.95625 131.65938 32.2375Q132.2375 32.503124 132.6125 32.83125ZM150.89375 37.55L146.175 37.55L146.175 36.909374Q146.39375 36.878124 146.65938 36.8625Q146.94063 36.846874 147.1125 36.784374Q147.37813 36.70625 147.50313 36.4875Q147.64375 36.253124 147.64375 35.909374L147.64375 30.95625Q147.64375 29.925 147.15938 29.378124Q146.675 28.815624 145.9875 28.815624Q145.47188 28.815624 145.03438 28.9875Q144.6125 29.14375 144.28438 29.378124Q143.95625 29.596874 143.76875 29.8625Q143.58125 30.1125 143.4875 30.26875L143.4875 35.815624Q143.4875 36.14375 143.6125 36.3625Q143.75313 36.565624 144.03438 36.690624Q144.2375 36.784374 144.47188 36.83125Q144.72188 36.878124 144.97188 36.909374L144.97188 37.55L140.25313 37.55L140.25313 36.909374Q140.47188 36.878124 140.70625 36.8625Q140.95625 36.846874 141.12813 36.784374Q141.40938 36.70625 141.53438 36.4875Q141.675 36.253124 141.675 35.909374L141.675 29.95625Q141.675 29.628124 141.53438 29.346874Q141.39375 29.065624 141.12813 28.89375Q140.94063 28.784374 140.69063 28.7375Q140.44063 28.675 140.14375 28.659374L140.14375 28.01875L143.34688 27.8L143.4875 27.940624L143.4875 29.3L143.53438 29.3Q143.76875 29.065624 144.1125 28.7375Q144.47188 28.409374 144.78438 28.20625Q145.14375 27.971874 145.64375 27.815624Q146.14375 27.659374 146.76875 27.659374Q148.15938 27.659374 148.81563 28.51875Q149.4875 29.378124 149.4875 30.815624L149.4875 35.83125Q149.4875 36.175 149.59688 36.39375Q149.72188 36.596874 150.00313 36.70625Q150.2375 36.8 150.40938 36.846874Q150.58125 36.878124 150.89375 36.909374L150.89375 37.55ZM161.64375 32.64375Q161.64375 33.659374 161.31563 34.64375Q160.9875 35.6125 160.39375 36.3Q159.72188 37.08125 158.83125 37.471874Q157.94063 37.846874 156.84688 37.846874Q155.925 37.846874 155.09688 37.503124Q154.26875 37.14375 153.62813 36.4875Q152.9875 35.83125 152.6125 34.89375Q152.2375 33.940624 152.2375 32.76875Q152.2375 30.51875 153.55 29.08125Q154.8625 27.64375 156.9875 27.64375Q159.01875 27.64375 160.33125 29.01875Q161.64375 30.378124 161.64375 32.64375ZM159.6125 32.659374Q159.6125 31.925 159.47188 31.1125Q159.33125 30.3 159.03438 29.721874Q158.72188 29.128124 158.20625 28.76875Q157.70625 28.39375 156.97188 28.39375Q156.22188 28.39375 155.69063 28.76875Q155.15938 29.128124 154.81563 29.76875Q154.50313 30.378124 154.37813 31.14375Q154.25313 31.89375 154.25313 32.6125Q154.25313 33.55 154.40938 34.346874Q154.56563 35.14375 154.89375 35.76875Q155.22188 36.39375 155.72188 36.753124Q156.22188 37.096874 156.97188 37.096874Q158.19063 37.096874 158.89375 35.925Q159.6125 34.7375 159.6125 32.659374ZM169.20625 37.128124Q168.56563 37.39375 168.00313 37.565624Q167.44063 37.753124 166.6125 37.753124Q165.40938 37.753124 164.90938 37.14375Q164.40938 36.534374 164.40938 35.425L164.40938 28.89375L162.675 28.89375L162.675 27.95625L164.45625 27.95625L164.45625 24.95625L166.2375 24.95625L166.2375 27.95625L169.00313 27.95625L169.00313 28.89375L166.25313 28.89375L166.25313 34.284374Q166.25313 34.878124 166.3 35.284374Q166.34688 35.690624 166.50313 36.003124Q166.65938 36.284374 166.97188 36.425Q167.28438 36.565624 167.81563 36.565624Q168.06563 36.565624 168.53438 36.534374Q169.00313 36.4875 169.20625 36.409374L169.20625 37.128124ZM189.51875 24.378124Q189.25313 24.39375 188.72188 24.503124Q188.19063 24.6125 187.8625 24.83125Q187.53438 25.05 187.39375 25.753124Q187.26875 26.45625 187.26875 27.471874L187.26875 33.503124Q187.26875 34.64375 186.78438 35.503124Q186.31563 36.346874 185.53438 36.89375Q184.76875 37.425 183.90938 37.64375Q183.05 37.878124 182.26875 37.878124Q181.01875 37.878124 180.03438 37.55Q179.06563 37.221874 178.40938 36.675Q177.75313 36.1125 177.425 35.39375Q177.09688 34.675 177.09688 33.89375L177.09688 25.70625Q177.09688 25.3625 176.97188 25.14375Q176.8625 24.909374 176.51875 24.70625Q176.28438 24.565624 175.89375 24.4875Q175.51875 24.409374 175.26875 24.378124L175.26875 23.690624L181.05 23.690624L181.05 24.378124Q180.76875 24.39375 180.34688 24.471874Q179.94063 24.55 179.75313 24.6125Q179.40938 24.7375 179.3 25.01875Q179.19063 25.284374 179.19063 25.6125L179.19063 33.26875Q179.19063 33.815624 179.31563 34.425Q179.44063 35.034374 179.8 35.565624Q180.175 36.096874 180.83125 36.440624Q181.4875 36.784374 182.62813 36.784374Q183.70625 36.784374 184.425 36.440624Q185.15938 36.096874 185.58125 35.55Q185.97188 35.01875 186.14375 34.440624Q186.31563 33.8625 186.31563 33.284374L186.31563 27.596874Q186.31563 26.51875 186.15938 25.83125Q186.00313 25.14375 185.69063 24.925Q185.34688 24.675 184.75313 24.55Q184.175 24.409374 183.8625 24.378124L183.8625 23.690624L189.51875 23.690624L189.51875 24.378124ZM196.6125 32.83125Q197.01875 33.190624 197.22188 33.64375Q197.44063 34.096874 197.44063 34.76875Q197.44063 36.096874 196.44063 36.95625Q195.44063 37.8 193.84688 37.8Q193.00313 37.8 192.3 37.503124Q191.59688 37.190624 191.28438 36.940624L191.09688 37.58125L190.3625 37.58125L190.26875 34.221874L190.94063 34.221874Q191.01875 34.6125 191.26875 35.128124Q191.51875 35.628124 191.87813 36.034374Q192.26875 36.471874 192.8 36.76875Q193.33125 37.05 193.9875 37.05Q194.925 37.05 195.425 36.628124Q195.94063 36.20625 195.94063 35.409374Q195.94063 35.003124 195.78438 34.70625Q195.62813 34.409374 195.31563 34.175Q194.9875 33.95625 194.51875 33.784374Q194.05 33.596874 193.47188 33.425Q193.01875 33.284374 192.45625 33.05Q191.89375 32.8 191.4875 32.4875Q191.06563 32.14375 190.78438 31.64375Q190.51875 31.14375 190.51875 30.471874Q190.51875 29.284374 191.39375 28.471874Q192.26875 27.64375 193.75313 27.64375Q194.31563 27.64375 194.90938 27.8Q195.50313 27.940624 195.8625 28.14375L196.09688 27.64375L196.8 27.64375L196.94063 30.7375L196.26875 30.7375Q196.06563 29.690624 195.37813 29.05Q194.70625 28.39375 193.7375 28.39375Q192.925 28.39375 192.47188 28.8Q192.01875 29.20625 192.01875 29.76875Q192.01875 30.20625 192.15938 30.503124Q192.31563 30.784374 192.6125 31.003124Q192.90938 31.190624 193.34688 31.3625Q193.8 31.534374 194.45625 31.753124Q195.09688 31.95625 195.65938 32.2375Q196.2375 32.503124 196.6125 32.83125ZM207.81563 35.284374Q207.20625 36.440624 206.19063 37.128124Q205.175 37.8 203.84688 37.8Q202.69063 37.8 201.81563 37.39375Q200.94063 36.9875 200.37813 36.284374Q199.81563 35.58125 199.53438 34.64375Q199.25313 33.70625 199.25313 32.659374Q199.25313 31.721874 199.55 30.815624Q199.84688 29.909374 200.425 29.190624Q200.9875 28.503124 201.8 28.08125Q202.62813 27.64375 203.65938 27.64375Q204.70625 27.64375 205.45625 27.9875Q206.22188 28.315624 206.69063 28.89375Q207.12813 29.440624 207.34688 30.190624Q207.58125 30.925 207.58125 31.784374L207.58125 32.425L201.19063 32.425Q201.19063 33.378124 201.37813 34.159374Q201.56563 34.925 201.95625 35.503124Q202.33125 36.08125 202.94063 36.409374Q203.56563 36.721874 204.40938 36.721874Q205.28438 36.721874 205.90938 36.33125Q206.53438 35.925 207.12813 34.8625L207.81563 35.284374ZM205.64375 31.6125Q205.64375 31.065624 205.55 30.440624Q205.47188 29.815624 205.25313 29.39375Q205.03438 28.940624 204.64375 28.659374Q204.25313 28.378124 203.64375 28.378124Q202.6125 28.378124 201.925 29.2375Q201.25313 30.08125 201.19063 31.6125L205.64375 31.6125ZM219.8 37.378124L216.44063 37.596874L216.3 37.45625L216.3 36.55L216.22188 36.534374Q215.70625 37.096874 214.95625 37.471874Q214.22188 37.83125 213.425 37.83125Q212.59688 37.83125 211.83125 37.471874Q211.06563 37.096874 210.50313 36.425Q209.925 35.753124 209.58125 34.815624Q209.25313 33.8625 209.25313 32.721874Q209.25313 31.675 209.6125 30.7375Q209.97188 29.8 210.6125 29.096874Q211.20625 28.440624 212.06563 28.05Q212.94063 27.659374 213.83125 27.659374Q214.50313 27.659374 215.14375 27.83125Q215.8 28.003124 216.26875 28.26875L216.26875 24.909374Q216.26875 24.503124 216.12813 24.175Q216.00313 23.83125 215.75313 23.659374Q215.4875 23.471874 215.01875 23.39375Q214.55 23.3 214.01875 23.26875L214.01875 22.659374L217.95625 22.425L218.09688 22.58125L218.09688 35.565624Q218.09688 35.909374 218.22188 36.159374Q218.3625 36.39375 218.6125 36.55Q218.8 36.675 219.14375 36.70625Q219.50313 36.721874 219.8 36.7375L219.8 37.378124ZM216.26875 35.690624L216.26875 30.05Q216.19063 29.8 216.01875 29.503124Q215.84688 29.20625 215.58125 28.971874Q215.3 28.721874 214.90938 28.565624Q214.53438 28.39375 214.03438 28.39375Q213.44063 28.39375 212.94063 28.70625Q212.45625 29.003124 212.08125 29.565624Q211.72188 30.1125 211.50313 30.95625Q211.3 31.8 211.3 32.83125Q211.3 33.659374 211.45625 34.33125Q211.6125 34.9875 211.97188 35.565624Q212.31563 36.1125 212.84688 36.45625Q213.37813 36.784374 214.1125 36.784374Q214.89375 36.784374 215.40938 36.440624Q215.925 36.096874 216.26875 35.690624Z" fill-rule="nonzero"/></svg>